<svg xmlns="http://www.w3.org/2000/svg" width="32" height="32" viewBox="0 0 32 32">
    <path fill="url(#grad1)"
        d="M16 28c-6.203 0-8.465-2.055-8.703-2.29l-.473-.464L15.324 4h7.617l-4.726 3.363l6.957 17.887l-.469.46c-.238.235-2.5 2.29-8.703 2.29m-6.777-3.363C10.102 25.137 12.176 26 16 26c3.828 0 5.898-.863 6.781-1.367l-6.68-17.188zM18 24a3 3 0 0 1 0-6c.262 0 .508.043.75.105A3.993 3.993 0 0 0 12 21c0 2.21 1.79 4 4 4a3.993 3.993 0 0 0 2.75-1.105A2.971 2.971 0 0 1 18 24m-2-11c.55 0 1 .45 1 1s-.45 1-1 1s-1-.45-1-1s.45-1 1-1m3 7c.55 0 1 .45 1 1s-.45 1-1 1s-1-.45-1-1s.45-1 1-1" />
    <defs>
        <linearGradient id="grad1" x1="0%" y1="60%" x2="100%" y2="100%">
            <stop offset="0%" style="stop-color:rgb(136,58,234);stop-opacity:1" />
            <stop offset="30%" style="stop-color:rgb(224,204,250);stop-opacity:1" />
            <stop offset="60%" style="stop-color:white;stop-opacity:1" />
        </linearGradient>
    </defs>
</svg>